<?xml version="1.0" encoding="UTF-8" standalone="no"?>
<!DOCTYPE svg PUBLIC "-//W3C//DTD SVG 1.1//EN" "http://www.w3.org/Graphics/SVG/1.1/DTD/svg11.dtd">
<svg width="100%" height="100%" viewBox="0 0 73 52" version="1.1" xmlns="http://www.w3.org/2000/svg" xmlns:xlink="http://www.w3.org/1999/xlink" xml:space="preserve" xmlns:serif="http://www.serif.com/" style="fill-rule:evenodd;clip-rule:evenodd;stroke-linejoin:round;stroke-miterlimit:2;">
    <g transform="matrix(2,0,0,2,-261.808,-1931.55)">
        <clipPath id="_clip1">
            <rect x="130.889" y="965.773" width="36" height="25.5"/>
        </clipPath>
        <g clip-path="url(#_clip1)">
            <g transform="matrix(1.28965,0,0,-1.28965,128.324,987.632)">
                <path d="M14.167,6.622C14.43,6.42 14.718,6.266 15.031,6.16C15.345,6.053 15.667,6 15.998,6C16.329,6 16.651,6.053 16.965,6.16C17.278,6.266 17.566,6.42 17.829,6.622L29.449,15.676C29.169,16.075 28.813,16.387 28.38,16.612C27.948,16.837 27.488,16.95 27,16.95L5,16.95C4.483,16.949 3.998,16.822 3.546,16.569C3.095,16.316 2.733,15.97 2.461,15.53L14.167,6.622Z" style="fill-rule:nonzero;"/>
            </g>
            <g transform="matrix(1.28965,0,0,-1.28965,128.324,1003.67)">
                <path d="M19.054,17.472C18.617,17.136 18.137,16.879 17.615,16.702C17.092,16.525 16.556,16.436 16.004,16.436C15.453,16.436 14.916,16.525 14.393,16.702C13.871,16.879 13.391,17.136 12.954,17.472L2,25.802L2,12.385C2,11.987 2.076,11.604 2.228,11.237C2.381,10.869 2.597,10.545 2.879,10.264C3.16,9.982 3.484,9.766 3.852,9.613C4.219,9.461 4.602,9.385 5,9.385L27,9.385C27.398,9.385 27.781,9.461 28.148,9.613C28.516,9.766 28.84,9.982 29.121,10.264C29.403,10.545 29.619,10.869 29.772,11.237C29.924,11.604 30,11.987 30,12.385L30,26L19.054,17.472Z" style="fill-rule:nonzero;"/>
            </g>
        </g>
    </g>
</svg>
