<?xml version="1.0" encoding="UTF-8" standalone="no"?>
<!DOCTYPE svg PUBLIC "-//W3C//DTD SVG 1.1//EN" "http://www.w3.org/Graphics/SVG/1.1/DTD/svg11.dtd">
<svg viewBox="0 0 2481 2481" version="1.1" xmlns="http://www.w3.org/2000/svg" xmlns:xlink="http://www.w3.org/1999/xlink" xml:space="preserve" xmlns:serif="http://www.serif.com/" style="fill-rule:evenodd;clip-rule:evenodd;stroke-linejoin:round;stroke-miterlimit:2;">
    <g transform="matrix(5.28605,8.12312e-32,8.12312e-32,-5.28605,408.567,2476.51)">
        <path d="M313.76,332.16C307.23,385.94 273.06,419.67 267.18,425.31C226.12,464.68 176.87,468.08 161.7,468.46C152.09,468.7 92.87,469.22 45.95,423.25C32.13,409.72 5.96,379.01 0.8,334.65C-4.07,292.8 14.25,250.62 30.01,212.84C33.93,203.43 46.32,172.98 80.88,110.92C96.95,82.07 119.28,43.7 148,-0.72C148.03,-0.68 222.94,93.17 278.82,207.5C314.4,280.29 316.59,308.84 313.76,332.16ZM157.32,244.61C116.5,244.61 83.41,277.7 83.41,318.52C83.41,359.34 116.5,392.43 157.32,392.43C198.13,392.43 231.22,359.34 231.22,318.52C231.22,277.7 198.13,244.61 157.32,244.61Z"/>
    </g>
</svg>
