<?xml version="1.0" encoding="UTF-8" standalone="no"?>
<!DOCTYPE svg PUBLIC "-//W3C//DTD SVG 1.1//EN" "http://www.w3.org/Graphics/SVG/1.1/DTD/svg11.dtd">
<svg width="100%" height="100%" viewBox="0 0 66 66" version="1.1" xmlns="http://www.w3.org/2000/svg" xmlns:xlink="http://www.w3.org/1999/xlink" xml:space="preserve" xmlns:serif="http://www.serif.com/" style="fill-rule:evenodd;clip-rule:evenodd;stroke-linejoin:round;stroke-miterlimit:2;">
    <g transform="matrix(2.85469,0,0,-2.85469,-11.4187,79.2282)">
        <path d="M21.225,12.865C20.819,13.103 20.32,13.098 19.916,12.858L17.87,11.639C17.412,11.366 16.84,11.398 16.42,11.726C15.694,12.293 14.525,13.247 13.508,14.264C12.491,15.281 11.537,16.45 10.97,17.176C10.642,17.596 10.61,18.168 10.883,18.626L12.102,20.672C12.343,21.076 12.345,21.579 12.107,21.985L9.105,27.113C8.814,27.609 8.236,27.853 7.677,27.716C7.134,27.584 6.429,27.262 5.69,26.522C3.376,24.208 2.147,20.305 10.849,11.603C19.551,2.901 23.453,4.129 25.768,6.444C26.509,7.185 26.83,7.891 26.963,8.435C27.098,8.993 26.858,9.567 26.363,9.857C25.127,10.58 22.461,12.141 21.225,12.865Z" style="fill-rule:nonzero;"/>
    </g>
</svg>
