<?xml version="1.0" encoding="UTF-8" standalone="no"?>
<!DOCTYPE svg PUBLIC "-//W3C//DTD SVG 1.1//EN" "http://www.w3.org/Graphics/SVG/1.1/DTD/svg11.dtd">
<svg width="100%" height="100%" viewBox="0 0 79 79" version="1.1" xmlns="http://www.w3.org/2000/svg" xmlns:xlink="http://www.w3.org/1999/xlink" xml:space="preserve" xmlns:serif="http://www.serif.com/" style="fill-rule:evenodd;clip-rule:evenodd;stroke-linejoin:round;stroke-miterlimit:2;">
    <g transform="matrix(1.71399,0,0,-1.71399,0,78.8437)">
        <path d="M42.5,19.5L3.5,19.5C1.6,19.5 0,21.1 0,23C0,24.9 1.6,26.5 3.5,26.5L42.5,26.5C44.4,26.5 46,24.9 46,23C46,21.1 44.4,19.5 42.5,19.5Z" style="fill:rgb(21,50,92);fill-rule:nonzero;"/>
    </g>
    <g transform="matrix(1.71399,0,0,-1.71399,0,78.8437)">
        <path d="M19.5,3.5L19.5,42.5C19.5,44.4 21.1,46 23,46C24.9,46 26.5,44.4 26.5,42.5L26.5,3.5C26.5,1.6 24.9,0 23,0C21.1,0 19.5,1.6 19.5,3.5Z" style="fill:rgb(21,50,92);fill-rule:nonzero;"/>
    </g>
</svg>
